<?xml version="1.0" encoding="UTF-8"?>
<svg id="LOGO_copy" data-name="LOGO copy" xmlns="http://www.w3.org/2000/svg" viewBox="0 0 256 311">
  <defs>
    <style>
      .cls-1 {
        fill: #e8e8e8;
      }
    </style>
  </defs>
  <path d="m223.45,274.87c-7.64,20.38-43.87,21.51-59.72-13.02-9.91-21.79-18.96-37.08-25.19-47.55-10.47-17.27-20.66-31.42-29.44-33.12-3.11-.57-18.68-.57-18.68,35.66,0,30.57-32.27,28.87-33.4,8.77-.57-5.66,1.98-12.45,8.49-19.25,8.21-8.49,15.85-12.45,19.25-17.55,13.3-19.81-3.96-30.85-17.83-28.3-3.96.85-8.49,2.55-13.3,5.38l-.28.28c-5.94,2.83-10.19,2.26-12.74,1.42-7.92-2.55-11.89-10.19-9.06-17.55,3.96-8.49,14.43-11.89,24.34-4.53,0,.28.28.28.28.28,30.85,17.83,42.74-7.08,33.12-34.81-4.53-13.02-8.77-25.47-12.74-37.93-10.76-34.25,31.13-37.36,28.59-7.08-.28,4.53-1.42,9.34-5.66,29.72-4.25,24.91,5.38,37.64,15.85,32.83,7.64-3.4,13.87-13.59,20.66-25.76,7.64-13.87,15.85-41.32,20.38-52.64,3.11-8.21,8.21-18.11,15.28-23.49,8.49-5.94,18.96-6.51,27.17-1.13,8.21,5.09,12.17,14.43,10.19,25.19-3.11,16.7-18.96,27.74-32.83,37.64-11.04,7.92-26.61,19.25-31.98,24.06-49.25,43.02-1.7,45.57,20.38,36.79,7.64-2.83,14.72-5.38,20.94-6.23,23.49-3.11,31.42,27.17,10.76,36.23-18.68,8.21-37.93-16.13-55.76-18.11-11.89-1.42-26.61,5.94-8.77,26.32,5.66,6.51,15.28,15,33.68,25.47,4.81,2.83,20.66,9.34,34.81,17.83,21.23,12.74,29.15,27.45,23.21,44.15Z"/>
  <g>
    <polygon class="cls-1" points="94.55 135.47 130.99 156.5 94.55 177.53 94.55 135.47"/>
    <path d="m95.05,136.33l17.47,10.08,17.47,10.08-17.47,10.08-17.47,10.08v-40.34m-1-1.73v43.8l18.97-10.95,18.97-10.95-18.97-10.95-18.97-10.95h0Z"/>
  </g>
</svg>